{
  "accessors": [
    {
      "bufferView": 2,
      "componentType": 5126,
      "count": 1694,
      "max": [
        3.382323980331421,
        2.8075759410858154,
        2.3461310863494873
      ],
      "min": [
        -3.348720073699951,
        -3.1715590953826904,
        0.7978219985961914
      ],
      "type": "VEC3"
    },
    {
      "bufferView": 2,
      "byteOffset": 20328,
      "componentType": 5126,
      "count": 1694,
      "max": [
        0.9991664886474609,
        0.9999027252197266,
        0.9991441965103149
      ],
      "min": [
        -0.9991664886474609,
        -0.9999027252197266,
        -0.9991441965103149
      ],
      "type": "VEC3"
    },
    {
      "bufferView": 3,
      "componentType": 5126,
      "count": 1694,
      "max": [
        0.9991672039031982,
        0.9999047517776489,
        0.9954420924186707,
        1.0
      ],
      "min": [
        -0.9991664290428162,
        -0.9999046921730042,
        -0.9695418477058411,
        1.0
      ],
      "type": "VEC4"
    },
    {
      "bufferView": 1,
      "componentType": 5126,
      "count": 1694,
      "max": [
        0.30053800344467163,
        0.9924929738044739
      ],
      "min": [
        0.0069599999114871025,
        0.003602999961003661
      ],
      "type": "VEC2"
    },
    {
      "bufferView": 0,
      "componentType": 5125,
      "count": 5628,
      "type": "SCALAR"
    },
    {
      "bufferView": 2,
      "byteOffset": 40656,
      "componentType": 5126,
      "count": 2665,
      "max": [
        4.039362907409668,
        4.039360046386719,
        6.23020076751709
      ],
      "min": [
        -4.039361000061035,
        -4.039361000061035,
        0.6057239770889282
      ],
      "type": "VEC3"
    },
    {
      "bufferView": 2,
      "byteOffset": 72636,
      "componentType": 5126,
      "count": 2665,
      "max": [
        1.0,
        1.0,
        1.0
      ],
      "min": [
        -1.0,
        -1.0,
        -1.0
      ],
      "type": "VEC3"
    },
    {
      "bufferView": 3,
      "byteOffset": 27104,
      "componentType": 5126,
      "count": 2665,
      "max": [
        1.0,
        1.0,
        0.9987792372703552,
        1.0
      ],
      "min": [
        -0.999204695224762,
        -0.9998393654823303,
        -0.9990087747573853,
        1.0
      ],
      "type": "VEC4"
    },
    {
      "bufferView": 1,
      "byteOffset": 13552,
      "componentType": 5126,
      "count": 2665,
      "max": [
        0.9970999956130981,
        0.9917680025100708
      ],
      "min": [
        0.1236250028014183,
        0.011587999761104584
      ],
      "type": "VEC2"
    },
    {
      "bufferView": 0,
      "byteOffset": 22512,
      "componentType": 5125,
      "count": 8793,
      "type": "SCALAR"
    },
    {
      "bufferView": 2,
      "byteOffset": 104616,
      "componentType": 5126,
      "count": 9,
      "max": [
        2.9234089851379395,
        -0.9842680096626282,
        6.23020076751709
      ],
      "min": [
        1.6152499914169312,
        -2.2389209270477295,
        3.9967169761657715
      ],
      "type": "VEC3"
    },
    {
      "bufferView": 2,
      "byteOffset": 104724,
      "componentType": 5126,
      "count": 9,
      "max": [
        -0.7192303538322449,
        0.6608278751373291,
        0.2145090401172638
      ],
      "min": [
        -0.7763243317604065,
        0.6303197741508484,
        0.004200131632387638
      ],
      "type": "VEC3"
    },
    {
      "bufferView": 1,
      "byteOffset": 34872,
      "componentType": 5126,
      "count": 9,
      "max": [
        0.44334399700164795,
        0.6377630233764648
      ],
      "min": [
        0.417248010635376,
        0.5986449718475342
      ],
      "type": "VEC2"
    },
    {
      "bufferView": 0,
      "byteOffset": 57684,
      "componentType": 5125,
      "count": 21,
      "type": "SCALAR"
    }
  ],
  "asset": {
    "extras": {
      "author": "Siesta (https://sketchfab.com/siesta)",
      "license": "CC-BY-4.0 (http://creativecommons.org/licenses/by/4.0/)",
      "source": "https://sketchfab.com/3d-models/hat-8508094aafb64b70bb132ce099194adf",
      "title": "Hat"
    },
    "generator": "Sketchfab-12.68.0",
    "version": "2.0"
  },
  "bufferViews": [
    {
      "buffer": 0,
      "byteLength": 57768,
      "name": "floatBufferViews",
      "target": 34963
    },
    {
      "buffer": 0,
      "byteLength": 34944,
      "byteOffset": 57768,
      "byteStride": 8,
      "name": "floatBufferViews",
      "target": 34962
    },
    {
      "buffer": 0,
      "byteLength": 104832,
      "byteOffset": 92712,
      "byteStride": 12,
      "name": "floatBufferViews",
      "target": 34962
    },
    {
      "buffer": 0,
      "byteLength": 69744,
      "byteOffset": 197544,
      "byteStride": 16,
      "name": "floatBufferViews",
      "target": 34962
    }
  ],
  "buffers": [
    {
      "byteLength": 267288,
      "uri": "scene.bin"
    }
  ],
  "extensionsUsed": [
    "KHR_materials_clearcoat",
    "KHR_materials_transmission"
  ],
  "images": [
    {
      "uri": "textures/glass_baseColor.png"
    },
    {
      "uri": "textures/glass_metallicRoughness.png"
    },
    {
      "uri": "textures/glass_normal.png"
    },
    {
      "uri": "textures/material_clearcoat.png"
    }
  ],
  "materials": [
    {
      "alphaMode": "BLEND",
      "extensions": {
        "KHR_materials_clearcoat": {
          "clearcoatFactor": 0.5261051829,
          "clearcoatNormalTexture": {
            "index": 2
          },
          "clearcoatRoughnessFactor": 0.1907393293
        },
        "KHR_materials_transmission": {
          "transmissionFactor": 0.7218680137541748
        }
      },
      "name": "glass",
      "normalTexture": {
        "index": 2
      },
      "pbrMetallicRoughness": {
        "baseColorFactor": [
          1.0,
          1.0,
          1.0,
          0.27813198624582525
        ],
        "baseColorTexture": {
          "index": 0
        },
        "metallicFactor": 0.0,
        "metallicRoughnessTexture": {
          "index": 1
        }
      }
    },
    {
      "extensions": {
        "KHR_materials_clearcoat": {
          "clearcoatFactor": 0.5626905487804879,
          "clearcoatNormalTexture": {
            "index": 2
          },
          "clearcoatRoughnessFactor": 0.3849045042558367,
          "clearcoatTexture": {
            "index": 3
          }
        }
      },
      "name": "material",
      "normalTexture": {
        "index": 2
      },
      "pbrMetallicRoughness": {
        "baseColorTexture": {
          "index": 0
        },
        "metallicRoughnessTexture": {
          "index": 1
        }
      }
    },
    {
      "name": "hat_Diffuse.png",
      "pbrMetallicRoughness": {
        "baseColorTexture": {
          "index": 0
        },
        "metallicFactor": 0.0,
        "metallicRoughnessTexture": {
          "index": 1
        }
      }
    }
  ],
  "meshes": [
    {
      "name": "Object_0",
      "primitives": [
        {
          "attributes": {
            "NORMAL": 1,
            "POSITION": 0,
            "TANGENT": 2,
            "TEXCOORD_0": 3
          },
          "indices": 4,
          "material": 0,
          "mode": 4
        }
      ]
    },
    {
      "name": "Object_1",
      "primitives": [
        {
          "attributes": {
            "NORMAL": 6,
            "POSITION": 5,
            "TANGENT": 7,
            "TEXCOORD_0": 8
          },
          "indices": 9,
          "material": 1,
          "mode": 4
        }
      ]
    },
    {
      "name": "Object_2",
      "primitives": [
        {
          "attributes": {
            "NORMAL": 11,
            "POSITION": 10,
            "TEXCOORD_0": 12
          },
          "indices": 13,
          "material": 2,
          "mode": 4
        }
      ]
    }
  ],
  "nodes": [
    {
      "children": [
        1
      ],
      "matrix": [
        1.0,
        0.0,
        0.0,
        0.0,
        0.0,
        2.220446049250313e-16,
        -1.0,
        0.0,
        0.0,
        1.0,
        2.220446049250313e-16,
        0.0,
        0.0,
        0.0,
        0.0,
        1.0
      ],
      "name": "Sketchfab_model"
    },
    {
      "children": [
        2,
        3,
        4
      ],
      "name": "246c3daf40624facae9e15ca6405b0ef.obj.cleaner"
    },
    {
      "mesh": 0,
      "name": "Object_2"
    },
    {
      "mesh": 1,
      "name": "Object_3"
    },
    {
      "mesh": 2,
      "name": "Object_4"
    }
  ],
  "samplers": [
    {
      "magFilter": 9729,
      "minFilter": 9987,
      "wrapS": 10497,
      "wrapT": 10497
    }
  ],
  "scene": 0,
  "scenes": [
    {
      "name": "Sketchfab_Scene",
      "nodes": [
        0
      ]
    }
  ],
  "textures": [
    {
      "sampler": 0,
      "source": 0
    },
    {
      "sampler": 0,
      "source": 1
    },
    {
      "sampler": 0,
      "source": 2
    },
    {
      "sampler": 0,
      "source": 3
    }
  ]
}
